<svg width="104" height="104" viewBox="0 0 104 104" fill="none" xmlns="http://www.w3.org/2000/svg">
<circle cx="52" cy="52" r="52" fill="#3554F4"/>
<path d="M45.248 46.872C45.248 41.976 47.264 39.768 52.016 39.768C56.384 39.768 58.496 41.64 58.496 44.712C58.496 51.096 49.424 50.088 49.424 58.2V59.352H54.368V58.296C54.368 52.632 63.488 53.928 63.488 44.712C63.488 38.52 59.408 34.92 52.016 34.92C44.288 34.92 40.304 38.904 40.304 46.872H45.248ZM51.872 69.48C54.32 69.48 55.52 68.328 55.52 66.024C55.52 63.72 54.272 62.568 51.872 62.568C49.472 62.568 48.272 63.72 48.272 66.024C48.272 68.328 49.472 69.48 51.872 69.48Z" fill="white"/>
</svg>
